<svg width="404" height="288" viewBox="0 0 404 288" fill="none" xmlns="http://www.w3.org/2000/svg">
<g filter="url(#filter0_f_213_19)">
<path d="M331.443 4.4301C331.178 4.38114 330.918 4.56628 330.862 4.84359C330.806 5.12092 330.976 5.38543 331.24 5.43438L331.443 4.4301ZM62.7638 105.776L63.092 106.142L62.7638 105.776ZM111.135 67.1201C111.197 66.844 111.034 66.5752 110.771 66.5197L106.48 65.615C106.216 65.5595 105.953 65.7383 105.89 66.0144C105.828 66.2905 105.991 66.5593 106.255 66.6148L110.069 67.419L109.168 71.4181C109.106 71.6942 109.269 71.963 109.532 72.0185C109.795 72.0741 110.059 71.8953 110.121 71.6192L111.135 67.1201ZM392.893 47.0173C405.114 75.0723 394.973 111.193 368.434 146.993C341.911 182.771 299.092 218.103 246.256 244.478L246.655 245.395C299.606 218.963 342.563 183.534 369.202 147.599C395.824 111.686 406.232 75.139 393.788 46.5707L392.893 47.0173ZM246.256 244.478C193.42 270.854 140.614 283.257 97.9633 282.009C55.2861 280.761 22.9202 265.86 10.6997 237.805L9.80495 238.251C22.2491 266.82 55.0914 281.776 97.903 283.029C140.741 284.282 193.705 271.827 246.655 245.395L246.256 244.478ZM331.24 5.43438C361.112 10.9587 383.259 24.9002 392.893 47.0173L393.788 46.5707C383.978 24.0487 361.483 9.98556 331.443 4.4301L331.24 5.43438ZM10.6997 237.805C2.76533 219.59 4.25404 197.983 13.5444 175.255C22.8355 152.524 39.9162 128.71 63.092 106.142L62.4356 105.409C39.1883 128.046 22.0069 151.978 12.6448 174.882C3.28198 197.788 1.72648 219.705 9.80495 238.251L10.6997 237.805ZM63.092 106.142C76.9745 92.6241 93.0389 79.5578 110.916 67.4441L110.401 66.595C92.4774 78.7402 76.365 91.8446 62.4356 105.409L63.092 106.142Z" fill="url(#paint0_linear_213_19)"/>
</g>
<defs>
<filter id="filter0_f_213_19" x="0.581055" y="0.422241" width="402.432" height="286.692" filterUnits="userSpaceOnUse" color-interpolation-filters="sRGB">
<feFlood flood-opacity="0" result="BackgroundImageFix"/>
<feBlend mode="normal" in="SourceGraphic" in2="BackgroundImageFix" result="shape"/>
<feGaussianBlur stdDeviation="2" result="effect1_foregroundBlur_213_19"/>
</filter>
<linearGradient id="paint0_linear_213_19" x1="46.2546" y1="88.8291" x2="355.767" y2="292.075" gradientUnits="userSpaceOnUse">
<stop stop-color="white" stop-opacity="0.4"/>
<stop offset="0.21784" stop-color="white"/>
<stop offset="0.578937" stop-color="#EAEBEB"/>
<stop offset="1" stop-color="white" stop-opacity="0"/>
</linearGradient>
</defs>
</svg>
