<svg width="31" height="30" viewBox="0 0 31 30" fill="none" xmlns="http://www.w3.org/2000/svg">
<g clip-path="url(#clip0_237_184)">
<path d="M15.7622 12.3337V18.0809H23.7488C23.3981 19.9291 22.3457 21.4941 20.7673 22.5464L25.5835 26.2834C28.3896 23.6933 30.0085 19.8888 30.0085 15.3693C30.0085 14.3171 29.9141 13.3052 29.7387 12.3339L15.7622 12.3337Z" fill="white"/>
<path d="M7.44538 17.8564L6.35913 18.688L2.51416 21.6829C4.95601 26.5261 9.96076 29.8719 15.7618 29.8719C19.7685 29.8719 23.1277 28.5498 25.5831 26.2833L20.7669 22.5463C19.4448 23.4367 17.7584 23.9764 15.7618 23.9764C11.9034 23.9764 8.62524 21.3727 7.45144 17.865L7.44538 17.8564Z" fill="white"/>
<path d="M2.51417 8.38086C1.50241 10.3774 0.922363 12.6304 0.922363 15.0318C0.922363 17.4331 1.50241 19.6861 2.51417 21.6827C2.51417 21.6961 7.45193 17.8513 7.45193 17.8513C7.15513 16.9609 6.9797 16.0166 6.9797 15.0316C6.9797 14.0467 7.15513 13.1024 7.45193 12.212L2.51417 8.38086Z" fill="white"/>
<path d="M15.7621 6.10091C17.9477 6.10091 19.8903 6.85638 21.4418 8.31342L25.6914 4.06384C23.1146 1.6625 19.769 0.191895 15.7621 0.191895C9.96107 0.191895 4.95601 3.52414 2.51416 8.38089L7.45177 12.2123C8.6254 8.70463 11.9037 6.10091 15.7621 6.10091Z" fill="white"/>
</g>
<defs>
<clipPath id="clip0_237_184">
<rect width="29.68" height="29.68" fill="white" transform="translate(0.922363 0.191895)"/>
</clipPath>
</defs>
</svg>
