<svg width="32" height="30" viewBox="0 0 32 30" fill="none" xmlns="http://www.w3.org/2000/svg">
<g clip-path="url(#clip0_237_194)">
<path d="M15.9384 2.95953C20.0168 2.95953 20.4998 2.97643 22.1037 3.044C23.5943 3.10594 24.3992 3.34246 24.9359 3.53955C25.6454 3.79859 26.1582 4.11394 26.6888 4.61512C27.2255 5.12193 27.5534 5.60059 27.8277 6.27071C28.0364 6.77752 28.2868 7.54337 28.3524 8.94555C28.4239 10.466 28.4418 10.9221 28.4418 14.7683C28.4418 18.62 28.4239 19.0762 28.3524 20.591C28.2868 21.9988 28.0364 22.759 27.8277 23.2658C27.5534 23.9359 27.2195 24.4202 26.6888 24.9214C26.1522 25.4282 25.6454 25.7379 24.9359 25.997C24.3992 26.1941 23.5883 26.4306 22.1037 26.4925C20.4938 26.5601 20.0108 26.577 15.9384 26.577C11.8601 26.577 11.3771 26.5601 9.77321 26.4925C8.28259 26.4306 7.47765 26.1941 6.94103 25.997C6.23149 25.7379 5.71871 25.4226 5.18805 24.9214C4.65143 24.4146 4.32349 23.9359 4.04921 23.2658C3.84053 22.759 3.5901 21.9932 3.52451 20.591C3.45296 19.0705 3.43508 18.6144 3.43508 14.7683C3.43508 10.9165 3.45296 10.4604 3.52451 8.94555C3.5901 7.53774 3.84053 6.77752 4.04921 6.27071C4.32349 5.60059 4.65739 5.1163 5.18805 4.61512C5.72468 4.10831 6.23149 3.79859 6.94103 3.53955C7.47765 3.34246 8.28855 3.10594 9.77321 3.044C11.3771 2.97643 11.8601 2.95953 15.9384 2.95953ZM15.9384 0.363525C11.7945 0.363525 11.2758 0.380419 9.648 0.447994C8.0262 0.515569 6.91121 0.763344 5.94529 1.11811C4.93763 1.48978 4.08499 1.97969 3.23831 2.78496C2.38568 3.5846 1.86694 4.38987 1.47341 5.33592C1.09778 6.25381 0.835426 7.30123 0.763876 8.83293C0.692326 10.3759 0.674438 10.8658 0.674438 14.7795C0.674438 18.6932 0.692326 19.1832 0.763876 20.7205C0.835426 22.2522 1.09778 23.3052 1.47341 24.2175C1.86694 25.1692 2.38568 25.9745 3.23831 26.7741C4.08499 27.5737 4.93763 28.0693 5.93933 28.4353C6.91121 28.7901 8.02024 29.0379 9.64204 29.1054C11.2698 29.173 11.7885 29.1899 15.9325 29.1899C20.0764 29.1899 20.5952 29.173 22.2229 29.1054C23.8447 29.0379 24.9597 28.7901 25.9256 28.4353C26.9273 28.0693 27.78 27.5737 28.6266 26.7741C29.4733 25.9745 29.998 25.1692 30.3856 24.2231C30.7612 23.3052 31.0236 22.2578 31.0951 20.7261C31.1667 19.1888 31.1846 18.6989 31.1846 14.7852C31.1846 10.8714 31.1667 10.3815 31.0951 8.84419C31.0236 7.31249 30.7612 6.25944 30.3856 5.34718C30.0099 4.38987 29.4912 3.5846 28.6386 2.78496C27.7919 1.98533 26.9393 1.48978 25.9376 1.12374C24.9657 0.768975 23.8566 0.5212 22.2348 0.453625C20.6011 0.380419 20.0824 0.363525 15.9384 0.363525Z" fill="white"/>
<path d="M15.9385 7.37451C11.6097 7.37451 8.09778 10.6913 8.09778 14.7796C8.09778 18.8679 11.6097 22.1847 15.9385 22.1847C20.2672 22.1847 23.7792 18.8679 23.7792 14.7796C23.7792 10.6913 20.2672 7.37451 15.9385 7.37451ZM15.9385 19.5831C13.1301 19.5831 10.8525 17.4319 10.8525 14.7796C10.8525 12.1273 13.1301 9.97615 15.9385 9.97615C18.7468 9.97615 21.0245 12.1273 21.0245 14.7796C21.0245 17.4319 18.7468 19.5831 15.9385 19.5831Z" fill="white"/>
<path d="M25.9196 7.08158C25.9196 8.03889 25.0968 8.81037 24.0892 8.81037C23.0755 8.81037 22.2587 8.03326 22.2587 7.08158C22.2587 6.12427 23.0815 5.35278 24.0892 5.35278C25.0968 5.35278 25.9196 6.1299 25.9196 7.08158Z" fill="white"/>
</g>
<defs>
<clipPath id="clip0_237_194">
<rect width="30.528" height="28.832" fill="white" transform="translate(0.674438 0.363525)"/>
</clipPath>
</defs>
</svg>
