<svg width="43" height="40" viewBox="0 0 43 40" fill="none" xmlns="http://www.w3.org/2000/svg">
<path d="M25.7411 9.63724C26.1014 11.0711 27.4729 12.1392 29.1107 12.1392C31.0227 12.1392 32.5728 10.6841 32.5728 8.88908C32.5728 7.0941 31.0227 5.63892 29.1107 5.63892C27.4389 5.63892 26.0446 6.75125 25.72 8.23081C22.9201 8.51271 20.7337 10.742 20.7337 13.4436C20.7337 13.4497 20.7337 13.4542 20.7337 13.4603C17.6887 13.5807 14.9083 14.3944 12.7009 15.6789C11.8812 15.0831 10.8521 14.7281 9.73543 14.7281C7.05565 14.7281 4.88391 16.7669 4.88391 19.2826C4.88391 21.108 6.02659 22.6805 7.67731 23.4074C7.838 28.6948 13.975 32.9476 21.5242 32.9476C29.0733 32.9476 35.2185 28.6902 35.3711 23.3982C37.0088 22.6668 38.1417 21.0989 38.1417 19.2841C38.1417 16.7684 35.97 14.7296 33.2902 14.7296C32.1784 14.7296 31.1542 15.0816 30.3361 15.6728C28.1092 14.3791 25.298 13.5655 22.2221 13.4573C22.2221 13.4527 22.2221 13.4497 22.2221 13.4451C22.2221 11.5099 23.7544 9.90389 25.7411 9.64028V9.63724ZM12.5061 22.1731C12.5873 20.5214 13.7559 19.2536 15.1145 19.2536C16.473 19.2536 17.5118 20.593 17.4307 22.2447C17.3495 23.8965 16.3351 24.4968 14.9749 24.4968C13.6147 24.4968 12.425 23.8249 12.5061 22.1731ZM27.9355 19.2536C29.2957 19.2536 30.4644 20.5214 30.5439 22.1731C30.6251 23.8249 29.4337 24.4968 28.0751 24.4968C26.7166 24.4968 25.7005 23.898 25.6193 22.2447C25.5382 20.593 26.5754 19.2536 27.9355 19.2536ZM26.3189 25.9947C26.5737 26.0191 26.736 26.2674 26.637 26.4899C25.8011 28.3656 23.8274 29.6837 21.5242 29.6837C19.221 29.6837 17.2489 28.3656 16.4113 26.4899C16.3123 26.2674 16.4746 26.0191 16.7295 25.9947C18.2228 25.853 19.8378 25.7753 21.5242 25.7753C23.2106 25.7753 24.824 25.853 26.3189 25.9947Z" fill="white"/>
</svg>
