<svg width="32" height="30" viewBox="0 0 32 30" fill="none" xmlns="http://www.w3.org/2000/svg">
<g clip-path="url(#clip0_237_192)">
<path d="M16.1543 0.363525C7.49014 0.363525 0.466309 6.81786 0.466309 14.7795C0.466309 21.5401 5.53165 27.213 12.3647 28.7711V19.1851H9.12985V14.7795H12.3647V12.8812C12.3647 7.9746 14.7813 5.70033 20.0236 5.70033C21.0176 5.70033 22.7326 5.87966 23.4342 6.05842V10.0517C23.0639 10.0159 22.4207 9.99803 21.6219 9.99803C19.0497 9.99803 18.0557 10.8935 18.0557 13.2214V14.7795H23.18L22.2996 19.1851H18.0557V29.09C25.8238 28.2279 31.8429 22.1501 31.8429 14.7795C31.8423 6.81786 24.8185 0.363525 16.1543 0.363525Z" fill="white"/>
</g>
<defs>
<clipPath id="clip0_237_192">
<rect width="31.376" height="28.832" fill="white" transform="translate(0.466309 0.363525)"/>
</clipPath>
</defs>
</svg>
