<svg width="32" height="28" viewBox="0 0 32 28" fill="none" xmlns="http://www.w3.org/2000/svg">
<g clip-path="url(#clip0_237_207)">
<path d="M26.7656 5.37021C24.8199 4.60141 22.7333 4.035 20.5517 3.71059C20.512 3.70433 20.4723 3.71997 20.4519 3.75127C20.1835 4.16225 19.8863 4.69842 19.6781 5.11984C17.3317 4.81734 14.9973 4.81734 12.6989 5.11984C12.4908 4.68905 12.1827 4.16225 11.9132 3.75127C11.8927 3.72102 11.853 3.70537 11.8133 3.71059C9.6329 4.03396 7.54638 4.60038 5.59942 5.37021C5.58257 5.37646 5.56812 5.3869 5.55853 5.40046C1.60084 10.492 0.516659 15.4583 1.04852 20.3631C1.05093 20.3871 1.06657 20.4101 1.08823 20.4246C3.69941 22.0759 6.22878 23.0784 8.71117 23.7428C8.7509 23.7533 8.793 23.7407 8.81828 23.7126C9.40549 23.022 9.92894 22.2939 10.3777 21.5283C10.4042 21.4834 10.3789 21.4302 10.3248 21.4125C9.49454 21.1413 8.70395 20.8106 7.94346 20.4351C7.88331 20.4048 7.87849 20.3307 7.93383 20.2953C8.09386 20.192 8.25394 20.0846 8.40675 19.9761C8.4344 19.9563 8.47293 19.9521 8.50543 19.9646C13.5015 21.9288 18.9104 21.9288 23.8476 19.9646C23.8801 19.9511 23.9186 19.9552 23.9474 19.975C24.1003 20.0835 24.2603 20.192 24.4216 20.2953C24.4769 20.3307 24.4733 20.4048 24.4131 20.4351C23.6527 20.8179 22.8621 21.1413 22.0306 21.4114C21.9764 21.4292 21.9524 21.4834 21.9789 21.5283C22.4373 22.2929 22.9607 23.021 23.5371 23.7115C23.5612 23.7407 23.6045 23.7533 23.6442 23.7428C26.1387 23.0784 28.668 22.0759 31.2792 20.4246C31.3021 20.4101 31.3165 20.3881 31.3189 20.3641C31.9555 14.6937 30.2528 9.76804 26.8053 5.40149C26.7969 5.3869 26.7825 5.37646 26.7656 5.37021ZM11.1238 17.3766C9.61966 17.3766 8.38027 16.1875 8.38027 14.7271C8.38027 13.2667 9.59563 12.0775 11.1238 12.0775C12.664 12.0775 13.8914 13.2771 13.8674 14.7271C13.8674 16.1875 12.652 17.3766 11.1238 17.3766ZM21.2677 17.3766C19.7636 17.3766 18.5242 16.1875 18.5242 14.7271C18.5242 13.2667 19.7395 12.0775 21.2677 12.0775C22.8079 12.0775 24.0353 13.2771 24.0112 14.7271C24.0112 16.1875 22.8079 17.3766 21.2677 17.3766Z" fill="white"/>
</g>
<defs>
<clipPath id="clip0_237_207">
<rect width="30.528" height="26.288" fill="white" transform="translate(0.922363 0.818359)"/>
</clipPath>
</defs>
</svg>
