<svg width="37" height="31" viewBox="0 0 37 31" fill="none" xmlns="http://www.w3.org/2000/svg">
<path d="M0.922363 30.5198L3.41241 22.8983C1.87587 20.6673 1.06849 18.1383 1.06997 15.545C1.07439 7.43746 8.94895 0.839844 18.6243 0.839844C23.3195 0.84108 27.7269 2.37331 31.042 5.15334C34.3557 7.93336 36.18 11.6285 36.1785 15.5587C36.1741 23.6675 28.2996 30.2651 18.6243 30.2651C15.687 30.2639 12.7925 29.6468 10.2287 28.4744L0.922363 30.5198ZM10.6597 25.8119C13.1335 27.0423 15.4951 27.7794 18.6183 27.7806C26.6597 27.7806 33.2103 22.2972 33.2147 15.5562C33.2176 8.8015 26.6981 3.32554 18.6302 3.32307C10.5829 3.32307 4.03676 8.80645 4.03381 15.5463C4.03233 18.2979 4.9947 20.3582 6.61094 22.5137L5.1364 27.025L10.6597 25.8119ZM27.4671 19.0547C27.3579 18.9014 27.0656 18.8098 26.6257 18.6256C26.1874 18.4413 24.0309 17.5522 23.628 17.4297C23.2265 17.3073 22.9342 17.2455 22.6405 17.614C22.3482 17.9813 21.5069 18.8098 21.2516 19.0547C20.9962 19.2996 20.7394 19.3305 20.301 19.1462C19.8626 18.962 18.4486 18.5749 16.7733 17.3221C15.47 16.3476 14.5888 15.1444 14.3335 14.7758C14.0781 14.4086 14.3069 14.2094 14.5253 14.0264C14.7231 13.8619 14.9637 13.5973 15.1837 13.3821C15.4065 13.1694 15.4789 13.0161 15.6265 12.77C15.7726 12.5251 15.7003 12.3099 15.5896 12.1257C15.4789 11.9426 14.6021 10.1334 14.2375 9.39758C13.8803 8.68155 13.5187 8.77801 13.2501 8.76688L12.4087 8.75451C12.1165 8.75451 11.6412 8.84602 11.2397 9.21455C10.8383 9.58308 9.70467 10.471 9.70467 12.2802C9.70467 14.0895 11.2766 15.8369 11.4951 16.0818C11.715 16.3266 14.5873 20.0391 18.9874 21.6307C20.0338 22.0091 20.8516 22.2354 21.4877 22.4048C22.5387 22.6843 23.4951 22.6448 24.2508 22.5508C25.0936 22.4456 26.8457 21.6616 27.2117 20.8034C27.5778 19.9439 27.5778 19.2081 27.4671 19.0547Z" fill="white"/>
</svg>
