<svg width="34" height="33" viewBox="0 0 34 33" fill="none" xmlns="http://www.w3.org/2000/svg">
<g clip-path="url(#clip0_237_205)">
<path fill-rule="evenodd" clip-rule="evenodd" d="M17.0641 0.227539C7.91254 0.227539 0.514404 7.48912 0.514404 16.4727C0.514404 23.6537 5.25464 29.7323 11.8306 31.8837C12.6528 32.0455 12.9539 31.5342 12.9539 31.1041C12.9539 30.7275 12.9268 29.4366 12.9268 28.0915C8.32311 29.06 7.36443 26.155 7.36443 26.155C6.62458 24.2723 5.52836 23.7884 5.52836 23.7884C4.02157 22.7932 5.63812 22.7932 5.63812 22.7932C7.30955 22.9008 8.18659 24.4608 8.18659 24.4608C9.66595 26.935 12.0498 26.2359 13.0088 25.8055C13.1457 24.7565 13.5844 24.0303 14.0502 23.627C10.3784 23.2504 6.51516 21.8519 6.51516 15.6119C6.51516 13.8367 7.17235 12.3844 8.2137 11.2549C8.0494 10.8516 7.47385 9.18371 8.37833 6.95143C8.37833 6.95143 9.77571 6.52102 12.9265 8.61896C14.2755 8.26336 15.6666 8.08246 17.0641 8.08094C18.4615 8.08094 19.8859 8.26941 21.2013 8.61896C24.3525 6.52102 25.7498 6.95143 25.7498 6.95143C26.6543 9.18371 26.0784 10.8516 25.9141 11.2549C26.9829 12.3844 27.613 13.8367 27.613 15.6119C27.613 21.8519 23.7498 23.2233 20.0506 23.627C20.6536 24.1379 21.1739 25.106 21.1739 26.6392C21.1739 28.8177 21.1468 30.5661 21.1468 31.1038C21.1468 31.5342 21.4483 32.0455 22.2701 31.8841C28.8461 29.732 33.5863 23.6537 33.5863 16.4727C33.6134 7.48912 26.1882 0.227539 17.0641 0.227539Z" fill="white"/>
</g>
<defs>
<clipPath id="clip0_237_205">
<rect width="33.072" height="32.224" fill="white" transform="translate(0.514404 0.227539)"/>
</clipPath>
</defs>
</svg>
