<svg width="34" height="30" viewBox="0 0 34 30" fill="none" xmlns="http://www.w3.org/2000/svg">
<g clip-path="url(#clip0_237_198)">
<path d="M31.1383 0.363525H2.95605C1.60604 0.363525 0.514404 1.29268 0.514404 2.44146V27.112C0.514404 28.2607 1.60604 29.1955 2.95605 29.1955H31.1383C32.4883 29.1955 33.5864 28.2607 33.5864 27.1176V2.44146C33.5864 1.29268 32.4883 0.363525 31.1383 0.363525ZM10.3262 24.9327H5.41707V11.1699H10.3262V24.9327ZM7.87163 9.29469C6.29554 9.29469 5.02305 8.18533 5.02305 6.81694C5.02305 5.44854 6.29554 4.33919 7.87163 4.33919C9.44126 4.33919 10.7138 5.44854 10.7138 6.81694C10.7138 8.1797 9.44126 9.29469 7.87163 9.29469ZM28.6967 24.9327H23.794V18.2427C23.794 16.6491 23.7617 14.5937 21.2425 14.5937C18.6911 14.5937 18.3035 16.3337 18.3035 18.1301V24.9327H13.4073V11.1699H18.1097V13.0507H18.1743C18.8267 11.9695 20.4287 10.8264 22.8122 10.8264C27.7794 10.8264 28.6967 13.6758 28.6967 17.3812V24.9327Z" fill="white"/>
</g>
<defs>
<clipPath id="clip0_237_198">
<rect width="33.072" height="28.832" fill="white" transform="translate(0.514404 0.363525)"/>
</clipPath>
</defs>
</svg>
